<svg width="73" height="74" viewBox="0 0 73 74" fill="none" xmlns="http://www.w3.org/2000/svg">
<g filter="url(#filter0_d)">
<circle cx="36.5" cy="36.5" r="36.5" fill="white" fill-opacity="0.7"/>
</g>
<path d="M61 37C61 43.6784 58.3989 49.9564 53.6772 54.6782C48.9556 59.4 42.6774 62 36 62H35.9717C29.304 61.9922 23.0367 59.3931 18.3218 54.6782C13.6001 49.9564 11 43.6784 11 37C11 30.3226 13.6001 24.0445 18.3218 19.3228C23.0367 14.6079 29.304 12.0078 35.9717 12H36C42.6774 12 48.9555 14.6011 53.6772 19.3228C58.399 24.0444 61 30.3226 61 37Z" fill="#738C96"/>
<path d="M60.999 37C60.999 43.6784 58.3979 49.9564 53.6763 54.6782C48.9546 59.4 42.6765 62 35.999 62H35.9707V12H35.999C42.6765 12 48.9545 14.6011 53.6763 19.3228C58.398 24.0444 60.999 30.3226 60.999 37Z" fill="#55696E"/>
<path d="M41.5847 26.3446C41.5847 29.4231 39.0804 31.9275 36.0018 31.9275H35.9735C32.9067 31.9119 30.418 29.4134 30.418 26.3446C30.418 23.2759 32.9067 20.7773 35.9735 20.7617H36.0018C39.0804 20.7617 41.5847 23.2661 41.5847 26.3446Z" fill="#EBF3FA"/>
<path d="M41.5847 40.1425V47.5287C41.5847 50.6072 39.0804 53.1116 36.0018 53.1116H35.9735C32.9067 53.096 30.418 50.5975 30.418 47.5287V40.1425C30.418 37.0737 32.9067 34.5742 35.9735 34.5586H36.0018C39.0804 34.5586 41.5847 37.064 41.5847 40.1425Z" fill="#EBF3FA"/>
<path d="M35.999 31.9275H35.9707V20.7617H35.999C39.0776 20.7617 41.582 23.2661 41.582 26.3446C41.582 29.4231 39.0776 31.9275 35.999 31.9275Z" fill="#EBF3FA"/>
<path d="M41.582 40.1425V47.5287C41.582 50.6072 39.0776 53.1116 35.999 53.1116H35.9707V34.5586H35.999C39.0776 34.5586 41.582 37.064 41.582 40.1425Z" fill="#EBF3FA"/>
<defs>
<filter id="filter0_d" x="0" y="0" width="73" height="74" filterUnits="userSpaceOnUse" color-interpolation-filters="sRGB">
<feFlood flood-opacity="0" result="BackgroundImageFix"/>
<feColorMatrix in="SourceAlpha" type="matrix" values="0 0 0 0 0 0 0 0 0 0 0 0 0 0 0 0 0 0 127 0"/>
<feOffset dy="1"/>
<feColorMatrix type="matrix" values="0 0 0 0 0 0 0 0 0 0 0 0 0 0 0 0 0 0 0.25 0"/>
<feBlend mode="normal" in2="BackgroundImageFix" result="effect1_dropShadow"/>
<feBlend mode="normal" in="SourceGraphic" in2="effect1_dropShadow" result="shape"/>
</filter>
</defs>
</svg>
