<svg width="73" height="74" viewBox="0 0 73 74" fill="none" xmlns="http://www.w3.org/2000/svg">
<g filter="url(#filter0_d)">
<circle cx="36.5" cy="36.5" r="36.5" fill="white" fill-opacity="0.7"/>
</g>
<g clip-path="url(#clip0)">
<path d="M56.0986 17.9058V55.0663C56.0986 57.786 53.8862 59.9994 51.1655 59.9994H20.8335C18.1128 59.9994 15.9004 57.786 15.9004 55.0663V17.9058C15.9004 15.1851 18.1128 12.9727 20.8335 12.9727H51.1655C53.8862 12.9728 56.0986 15.1852 56.0986 17.9058Z" fill="#738C96"/>
<path d="M56.099 17.9057V55.0663C56.099 57.786 53.8866 59.9994 51.1659 59.9994H35.9023V12.9727H51.1659C53.8866 12.9727 56.099 15.1851 56.099 17.9057Z" fill="#55696E"/>
<path d="M43.4639 13.8327V15.6257C43.4639 17.7386 41.745 19.4584 39.6321 19.4584H32.1716C30.0587 19.4584 28.3398 17.7386 28.3398 15.6257V13.8327C28.3398 11.7198 30.0587 10 32.1716 10H39.6321C41.7451 10 43.4639 11.7198 43.4639 13.8327Z" fill="#EBF3FA"/>
<path d="M50.1502 27.5531C50.1502 28.3618 49.4956 29.0164 48.6869 29.0164H34.4281C33.6204 29.0164 32.9648 28.3618 32.9648 27.5531C32.9648 26.7454 33.6204 26.0898 34.4281 26.0898H48.6869C49.4956 26.0899 50.1502 26.7454 50.1502 27.5531Z" fill="#EBF3FA"/>
<path d="M30.149 23.9723C29.5393 23.4423 28.6149 23.5064 28.0846 24.1164L24.8177 27.8733L23.6113 26.6388C23.0464 26.0606 22.12 26.0503 21.5422 26.615C20.964 27.1799 20.9536 28.1061 21.5183 28.6841L23.834 31.0537C23.8466 31.0667 23.8604 31.0777 23.8734 31.0901C23.8892 31.1051 23.9038 31.1209 23.9203 31.1352C23.9248 31.1391 23.9296 31.1424 23.934 31.1462C23.9497 31.1594 23.966 31.1716 23.9819 31.1842C24.0033 31.2008 24.0247 31.2175 24.0466 31.2327C24.0641 31.2449 24.0821 31.2561 24.0999 31.2675C24.1219 31.2814 24.1441 31.295 24.1667 31.3077C24.1846 31.3177 24.2027 31.3272 24.221 31.3365C24.2449 31.3486 24.2688 31.3599 24.2931 31.3706C24.3108 31.3783 24.3285 31.3859 24.3464 31.3929C24.3723 31.4031 24.3985 31.4123 24.4249 31.4209C24.4419 31.4264 24.4588 31.4321 24.4758 31.4371C24.5044 31.4453 24.533 31.452 24.5618 31.4584C24.5774 31.4619 24.5929 31.4658 24.6086 31.4688C24.6407 31.4749 24.6728 31.4791 24.7052 31.483C24.7181 31.4845 24.7309 31.4869 24.7438 31.4881C24.7889 31.4923 24.8342 31.4947 24.8795 31.4947C24.8796 31.4947 24.8797 31.4947 24.8798 31.4947C24.8799 31.4947 24.8799 31.4947 24.8801 31.4947C24.9289 31.4947 24.9778 31.4919 25.0263 31.4871C25.0403 31.4857 25.0541 31.483 25.068 31.4811C25.1028 31.4766 25.1373 31.4717 25.1717 31.4648C25.1887 31.4614 25.2055 31.4567 25.2223 31.4526C25.2531 31.4452 25.2838 31.4375 25.3141 31.4281C25.3326 31.4223 25.3507 31.4157 25.3688 31.4092C25.3968 31.3993 25.4247 31.3889 25.4522 31.3772C25.4716 31.369 25.4905 31.3601 25.5094 31.351C25.5348 31.3389 25.5598 31.3261 25.5847 31.3125C25.6047 31.3015 25.6242 31.2901 25.6436 31.2782C25.6665 31.2641 25.6888 31.2493 25.711 31.2341C25.7308 31.2203 25.7506 31.2064 25.7697 31.1917C25.7907 31.1755 25.8111 31.1582 25.8313 31.1408C25.85 31.1248 25.8686 31.109 25.8865 31.092C25.8918 31.087 25.8974 31.0828 25.9026 31.0777C25.9188 31.0618 25.933 31.0447 25.9482 31.0284C25.9599 31.0158 25.9727 31.0046 25.9841 30.9915L30.2926 26.0369C30.8232 25.4268 30.7588 24.5026 30.149 23.9723Z" fill="#EBF3FA"/>
<path d="M50.1482 37.7484C50.1482 38.5571 49.4937 39.2117 48.685 39.2117H34.4262C33.6185 39.2117 32.9629 38.5571 32.9629 37.7484C32.9629 36.9407 33.6185 36.2852 34.4262 36.2852H48.685C49.4937 36.2853 50.1482 36.9407 50.1482 37.7484Z" fill="#EBF3FA"/>
<path d="M50.1482 47.893C50.1482 48.7017 49.4937 49.3563 48.685 49.3563H34.4262C33.6185 49.3563 32.9629 48.7017 32.9629 47.893C32.9629 47.0853 33.6185 46.4297 34.4262 46.4297H48.685C49.4937 46.4297 50.1482 47.0853 50.1482 47.893Z" fill="#EBF3FA"/>
<path d="M28.7676 39.2117H22.8109C22.0028 39.2117 21.3477 38.5565 21.3477 37.7484C21.3477 36.9403 22.0028 36.2852 22.8109 36.2852H28.7676C29.5757 36.2852 30.2309 36.9403 30.2309 37.7484C30.2309 38.5565 29.5758 39.2117 28.7676 39.2117Z" fill="#EBF3FA"/>
<path d="M28.7676 49.1727H22.8109C22.0028 49.1727 21.3477 48.5175 21.3477 47.7094C21.3477 46.9013 22.0028 46.2461 22.8109 46.2461H28.7676C29.5757 46.2461 30.2309 46.9013 30.2309 47.7094C30.2309 48.5176 29.5758 49.1727 28.7676 49.1727Z" fill="#EBF3FA"/>
<path d="M39.6326 19.4584H35.9023V10H39.6326C41.7455 10 43.4644 11.7198 43.4644 13.8327V15.6257C43.4644 17.7386 41.7456 19.4584 39.6326 19.4584Z" fill="#EBF3FA"/>
<path d="M50.1495 47.889C50.1495 48.6977 49.4949 49.3522 48.6862 49.3522H35.9023V46.4258H48.6862C49.4949 46.4257 50.1495 47.0813 50.1495 47.889Z" fill="#EBF3FA"/>
<path d="M50.1495 37.7444C50.1495 38.5531 49.4949 39.2077 48.6862 39.2077H35.9023V36.2812H48.6862C49.4949 36.2812 50.1495 36.9367 50.1495 37.7444Z" fill="#EBF3FA"/>
<path d="M48.6862 29.0163H35.9023V26.0898H48.6862C49.4949 26.0898 50.1495 26.7454 50.1495 27.5531C50.1495 28.3617 49.4949 29.0163 48.6862 29.0163Z" fill="#EBF3FA"/>
</g>
<defs>
<filter id="filter0_d" x="0" y="0" width="73" height="74" filterUnits="userSpaceOnUse" color-interpolation-filters="sRGB">
<feFlood flood-opacity="0" result="BackgroundImageFix"/>
<feColorMatrix in="SourceAlpha" type="matrix" values="0 0 0 0 0 0 0 0 0 0 0 0 0 0 0 0 0 0 127 0"/>
<feOffset dy="1"/>
<feColorMatrix type="matrix" values="0 0 0 0 0 0 0 0 0 0 0 0 0 0 0 0 0 0 0.25 0"/>
<feBlend mode="normal" in2="BackgroundImageFix" result="effect1_dropShadow"/>
<feBlend mode="normal" in="SourceGraphic" in2="effect1_dropShadow" result="shape"/>
</filter>
<clipPath id="clip0">
<rect width="50" height="50" fill="white" transform="translate(11 10)"/>
</clipPath>
</defs>
</svg>
