<svg width="93" height="93" viewBox="0 0 93 93" fill="none" xmlns="http://www.w3.org/2000/svg">
<path d="M20.123 24.0234H91.3286V64.2701H20.123V24.0234Z" fill="#009698"/>
<path d="M20.123 24.0234H91.3286V64.2701H20.123V24.0234Z" fill="#009698"/>
<path d="M20.123 24.0234H91.3286V64.2701H20.123V24.0234Z" fill="#009698"/>
<path d="M20.123 24.0234H91.3286V64.2701H20.123V24.0234Z" fill="#009698"/>
<path d="M88.2323 16.2842V24.0238H29.4102L85.1827 16.6867L88.2323 16.2842Z" fill="#007579"/>
<path d="M85.1355 16.2826L85.1822 16.6851L29.4096 24.0223H24.7812L85.1355 8.54297V16.2826Z" fill="#006468"/>
<path d="M55.7243 30.2158C63.4184 30.214 69.6574 36.4499 69.6593 44.144C69.6611 51.8381 63.4252 58.0771 55.7311 58.0788C50.4251 58.0801 45.5789 55.0671 43.2324 50.3081C43.9576 49.2674 44.3515 48.0319 44.3625 46.7634C44.347 46.3919 44.316 46.036 44.2695 45.6798C44.0409 44.433 43.4422 43.2842 42.5514 42.3827C42.3717 42.205 42.1802 42.0396 41.9785 41.8872C43.0852 35.1565 48.9028 30.2165 55.7243 30.2158Z" fill="#FFCD00"/>
<path d="M69.6563 44.1475C69.6563 51.8418 63.4188 58.079 55.7247 58.079C54.6887 58.077 53.6558 57.9629 52.6445 57.7384C60.1473 56.033 64.8467 48.5683 63.1415 41.0655C61.9544 35.8439 57.88 31.7647 52.6598 30.572C53.6643 30.3348 54.6927 30.2153 55.7247 30.2158C63.4186 30.2158 69.6563 36.4532 69.6563 44.1475Z" fill="#DDB200"/>
<path d="M44.27 45.6781C44.3165 46.0343 44.3475 46.3902 44.363 46.7617C44.352 48.0302 43.9581 49.2657 43.2329 50.3064C43.0323 50.6009 42.8042 50.8757 42.5519 51.1269L29.4099 64.2689L34.4252 69.2842C36.1724 71.0274 37.1528 73.3951 37.1497 75.8629V81.296H7.28961L1.77904 62.0089C1.62489 61.4544 1.54691 60.8814 1.54691 60.306V41.158C1.54327 40.0699 1.83188 39.0007 2.38268 38.0622L21.6702 4.64219C23.3798 1.67992 27.1675 0.664495 30.1298 2.37429C33.0918 4.08428 34.1073 7.87157 32.3975 10.834L24.7815 24.0223H20.1222V56.5294L33.7906 42.3811C36.0035 40.1721 39.516 39.9595 41.9792 41.8857C42.1809 42.0379 42.3722 42.2035 42.552 42.3811C43.4426 43.2825 44.0414 44.4313 44.27 45.6781Z" fill="#FFC477"/>
<path d="M44.3635 46.7618C44.3526 48.0303 43.9586 49.2658 43.2335 50.3065C43.0329 50.601 42.8047 50.8757 42.5524 51.127L29.4104 64.269L34.4257 69.2843C36.1729 71.0275 37.1533 73.3952 37.1502 75.863V81.2961H30.9584V75.863C30.9617 73.395 29.9812 71.0275 28.2341 69.2843L23.2188 64.269L36.3607 51.127C36.6133 50.8757 36.8412 50.601 37.0418 50.3065C37.767 49.2658 38.1609 48.0303 38.1718 46.7618C38.1564 46.3902 38.1254 46.0344 38.0789 45.6782C37.8503 44.4314 37.2515 43.2826 36.3606 42.381C36.1809 42.2034 35.9896 42.0379 35.7879 41.8856C35.564 41.7063 35.326 41.5458 35.0758 41.4057C37.2601 40.1447 39.991 40.3345 41.9797 41.8856C42.1814 42.0378 42.3727 42.2034 42.5526 42.381C43.4434 43.2826 44.0421 44.4314 44.2708 45.6782C44.317 46.0344 44.348 46.3902 44.3635 46.7618Z" fill="#FFA733"/>
<path d="M38.6974 81.2979V90.5855H4.64258V81.2979H7.28945H37.1494H38.6974Z" fill="#2488FF"/>
<path d="M33.2188 7.75475C33.2179 8.8354 32.9351 9.8971 32.3985 10.8353L24.4428 24.0235L21.5026 25.0861L20.1233 31.7634V62.7223H13.9316V31.7634L26.2069 10.8353C27.9045 7.8719 26.8872 4.09373 23.9313 2.38338C26.8929 0.6734 30.6798 1.68828 32.3894 4.64963C32.9342 5.59381 33.2205 6.6648 33.2188 7.75475Z" fill="#FFA733"/>
<path d="M85.1367 24.0234H91.3285V64.2701H85.1367V24.0234Z" fill="#007579"/>
<path d="M91.3289 22.4758H89.7811V16.2839C89.7796 15.4292 89.0854 14.737 88.2306 14.7385C88.1642 14.7385 88.0977 14.7428 88.0316 14.7516L86.6849 14.9218V8.54427C86.6875 8.06435 86.4637 7.61139 86.0813 7.32151C85.703 7.03144 85.2131 6.92904 84.7503 7.04291L27.9714 21.609L33.7451 11.6093C34.4121 10.4339 34.764 9.10619 34.7667 7.75497C34.7751 3.48047 31.3167 0.00839551 27.0422 1.41426e-05C24.2718 -0.00526976 21.7098 1.4704 20.3243 3.86947L1.05263 37.2742C0.36335 38.453 3.54594e-05 39.794 3.54594e-05 41.1595V60.3076C-0.00215099 61.025 0.0967854 61.7387 0.294112 62.4285L5.2322 79.7498H4.64404C3.78914 79.7498 3.09604 80.4429 3.09604 81.2977V90.5855C3.09604 91.4404 3.78914 92.1335 4.64404 92.1335H38.6988C39.5537 92.1335 40.2468 91.4404 40.2468 90.5855V81.2977C40.2468 80.4429 39.5539 79.7498 38.6988 79.7498V75.8645C38.703 72.9853 37.5613 70.2228 35.5256 68.1867L33.1418 65.8184H91.3291C92.1838 65.8184 92.8769 65.1253 92.8769 64.2704V24.0236C92.8767 23.1689 92.1838 22.4758 91.3289 22.4758ZM86.6851 18.0487V22.4758H53.0485L86.6851 18.0487ZM83.5893 10.541V15.3397L45.1847 20.3861L83.5893 10.541ZM37.1508 89.0375H6.19186V82.8457H37.1508V89.0375ZM27.9871 64.8585C28.0638 65.0462 28.18 65.2151 28.3276 65.3539L28.3121 65.3694L33.3275 70.3848C34.7918 71.8311 35.6121 73.8062 35.603 75.8643V79.7497H8.45192L3.2664 61.5923C3.15562 61.1729 3.09841 60.7413 3.09604 60.3074V41.1595C3.09349 40.3423 3.31286 39.5399 3.73066 38.8376L23.018 5.41747C24.2792 3.20898 27.0921 2.44082 29.3008 3.70221C29.317 3.7115 29.3332 3.7208 29.3492 3.73009C30.799 4.54818 31.6885 6.09035 31.6712 7.75478C31.6694 8.5645 31.4559 9.35945 31.0521 10.0611L23.8851 22.4758H20.1235C19.2686 22.4758 18.5755 23.1687 18.5755 24.0236V56.5307C18.5792 57.1591 18.9563 57.7252 19.5352 57.9701C20.1252 58.2081 20.8006 58.0605 21.2381 57.5988L34.891 43.4813C36.7141 41.6689 39.6612 41.6777 41.4736 43.5008C42.1208 44.1518 42.561 44.9799 42.739 45.8806C42.77 46.1901 42.801 46.4997 42.8165 46.7475C42.8046 47.9764 42.3163 49.1529 41.4541 50.0291L28.3121 63.1713C27.8728 63.6166 27.7446 64.282 27.9871 64.8585ZM89.7811 62.7225H33.1416L42.9711 52.9085C45.8383 57.1329 50.6208 59.6519 55.7261 59.6267C64.2755 59.6342 71.2118 52.7099 71.2193 44.1607C71.2268 35.6117 64.3023 28.6752 55.7533 28.6678C48.9702 28.6618 42.9733 33.0727 40.9587 39.5499C38.0915 38.4556 34.8492 39.1465 32.6772 41.3145L21.6713 52.7074V25.5718H89.7811V62.7225ZM45.7884 45.3853C45.5083 43.8532 44.775 42.4404 43.6832 41.3298C45.2199 34.6451 51.8847 30.4721 58.5692 32.0088C65.2534 33.5455 69.4268 40.21 67.8901 46.8949C66.3532 53.5796 59.6885 57.7526 53.004 56.2159C49.632 55.4406 46.7362 53.2937 45.0144 50.2924C45.5794 49.1779 45.8862 47.9504 45.9121 46.7012C45.8968 46.2834 45.8503 45.8807 45.7884 45.3853Z" fill="black"/>
<path d="M55.7257 48.7907C54.8708 48.7907 54.1779 48.0977 54.1779 47.2428H51.082C51.0902 49.2037 52.329 50.9483 54.1779 51.6019V53.4349H57.2739V51.6019C59.6871 50.7517 60.9546 48.1061 60.1042 45.6927C59.4503 43.8358 57.6942 42.5952 55.7257 42.599C54.8708 42.599 54.1779 41.9059 54.1779 41.0512C54.1779 40.1961 54.8708 39.503 55.7257 39.503C56.5808 39.503 57.2739 40.1961 57.2739 41.0512H60.3695C60.3613 39.0901 59.1223 37.3457 57.2739 36.6922V34.8594H54.1779V36.6922C51.7644 37.5421 50.497 40.1877 51.3473 42.6012C52.0013 44.4579 53.7573 45.6987 55.7257 45.6948C56.5808 45.6948 57.2739 46.3879 57.2739 47.2428C57.2739 48.0977 56.5808 48.7907 55.7257 48.7907Z" fill="black"/>
<path d="M27.8618 34.6614C30.0404 34.0942 31.7417 32.3928 32.309 30.2142H35.6015V27.1182H30.9576C30.1027 27.1182 29.4096 27.8111 29.4096 28.6662C29.4096 30.376 28.0236 31.762 26.3136 31.762C25.4587 31.762 24.7656 32.4551 24.7656 33.31V37.9538H27.8616V34.6614H27.8618Z" fill="black"/>
<path d="M83.5891 36.21V39.5025H86.6849V34.8588C86.6849 34.0037 85.9918 33.3108 85.1369 33.3108C83.4273 33.3108 82.0413 31.9248 82.0413 30.2148C82.0413 29.3599 81.348 28.667 80.4931 28.667H75.8496V31.7628H79.1418C79.709 33.9416 81.4103 35.6428 83.5891 36.21Z" fill="black"/>
<path d="M82.0413 58.0777C82.0413 56.3679 83.4273 54.9819 85.1369 54.9819C85.9918 54.9819 86.6849 54.2888 86.6849 53.434V48.79H83.5891V52.0826C81.4103 52.6497 79.709 54.3513 79.1418 56.5299H75.8496V59.6257H80.4931C81.348 59.6257 82.0413 58.9326 82.0413 58.0777Z" fill="black"/>
</svg>
