<svg width="98" height="98" viewBox="0 0 98 98" fill="none" xmlns="http://www.w3.org/2000/svg">
<path d="M77.3597 89.6406C79.0963 89.6406 80.5172 91.056 80.5172 92.7859C80.5172 93.6509 80.1699 94.4372 79.5858 95.0034C79.0174 95.5853 78.228 95.9312 77.3597 95.9312H20.5247C18.7881 95.9312 17.3672 94.5159 17.3672 92.7859C17.3672 91.921 17.7145 91.1346 18.2987 90.5685C18.867 89.9866 19.6564 89.6406 20.5247 89.6406H33.8967H39.4697H58.4147H63.9877H77.3597Z" fill="#969FAA"/>
<path d="M91.8993 41.2354L85.2528 29.8809C85.2528 35.0863 68.9916 39.3168 48.9415 39.3168C28.8914 39.3168 12.6302 35.0863 12.6302 29.8809L5.9837 41.2354C5.44693 42.1476 4.95751 43.0912 4.53125 44.0505C4.5944 44.0505 4.67334 44.0348 4.73649 44.0348H7.89399H14.209H20.524H23.6815C25.4181 44.0348 26.839 45.4501 26.839 47.1801V50.3254C26.839 52.0553 25.4181 53.4707 23.6815 53.4707C25.4181 53.4707 26.839 54.8861 26.839 56.616V59.7613C26.839 61.4912 25.4181 62.9066 23.6815 62.9066C25.4181 62.9066 26.839 64.322 26.839 66.0519V69.1972C26.839 70.9272 25.4181 72.3426 23.6815 72.3426C25.4181 72.3426 26.839 73.7579 26.839 75.4879V78.6332C26.839 80.3631 25.4181 81.7785 23.6815 81.7785H12.7723L12.7565 81.7942C18.4243 86.6852 25.8128 89.6418 33.896 89.6418H63.987C72.0702 89.6418 79.4588 86.6852 85.1265 81.7942L85.1107 81.7785H74.2015C72.4649 81.7785 71.044 80.3631 71.044 78.6332V75.4879C71.044 73.7579 72.4649 72.3426 74.2015 72.3426C72.4649 72.3426 71.044 70.9272 71.044 69.1972V66.0519C71.044 64.322 72.4649 62.9066 74.2015 62.9066C72.4649 62.9066 71.044 61.4912 71.044 59.7613V56.616C71.044 54.8861 72.4649 53.4707 74.2015 53.4707C72.4649 53.4707 71.044 52.0553 71.044 50.3254V47.1801C71.044 45.4501 72.4649 44.0348 74.2015 44.0348H77.359H83.674H89.989H93.1465C93.2097 44.0348 93.2886 44.0505 93.3518 44.0505C92.9255 43.0912 92.4361 42.1476 91.8993 41.2354Z" fill="#CCD1D9"/>
<path d="M48.9421 29.8797V39.3156C28.892 39.3156 12.6309 35.0852 12.6309 29.8797C12.6309 27.0646 17.3987 24.5327 24.9609 22.8027C26.9975 26.986 31.3233 29.8797 36.3121 29.8797H48.9421Z" fill="#E6E9ED"/>
<path d="M73.933 23.0389C80.8953 24.7531 85.2527 27.1907 85.2527 29.88C85.2527 35.0855 68.9915 39.3159 48.9414 39.3159V29.88H61.5714C66.5918 29.88 70.9176 26.9706 72.9542 22.7559L73.933 23.0389Z" fill="#E6E9ED"/>
<path d="M20.5241 44.0332H23.6816C25.4182 44.0332 26.8391 45.4486 26.8391 47.1785V50.3238C26.8391 52.0537 25.4182 53.4691 23.6816 53.4691H20.5241H14.2091H7.89411H4.73661C3.59991 53.4691 2.62108 52.8715 2.06852 51.9908H2.05273C2.51057 49.2544 3.34731 46.5809 4.53137 44.0489C4.59452 44.0489 4.67346 44.0332 4.73661 44.0332H7.89411H14.2091H20.5241Z" fill="#FFC729"/>
<path d="M20.5257 62.9062H23.6833C25.4199 62.9062 26.8408 64.3216 26.8408 66.0516V69.1969C26.8408 70.9268 25.4199 72.3422 23.6833 72.3422H20.5257H14.2107H5.25923L2.27539 64.1015C2.85953 63.378 3.74363 62.9062 4.73824 62.9062H7.89574H14.2107H20.5257Z" fill="#FFC729"/>
<path d="M77.3599 62.9066H74.2024C72.4658 62.9066 71.0449 61.4912 71.0449 59.7613V56.616C71.0449 54.8861 72.4658 53.4707 74.2024 53.4707H77.3599H83.6749H89.9899H93.1474C94.7578 53.4707 96.0523 54.6659 96.2576 56.2071C96.2734 56.4116 96.2734 56.616 96.2892 56.8362C96.3049 57.0406 96.3049 57.2451 96.3049 57.4495C96.3049 57.9999 96.2892 58.5504 96.2576 59.1008C96.2418 59.6512 96.1944 60.2017 96.1313 60.7364V60.7678C95.705 62.0102 94.5367 62.9066 93.1474 62.9066H89.9899H83.6749H77.3599Z" fill="#FFC729"/>
<path d="M85.1116 81.7777H74.2024C72.4658 81.7777 71.0449 80.3623 71.0449 78.6324V75.4871C71.0449 73.7572 72.4658 72.3418 74.2024 72.3418H77.3599H83.6749H92.6264C90.7477 75.9589 88.1902 79.1671 85.1274 81.7935L85.1116 81.7777Z" fill="#FFC729"/>
<path d="M20.5243 72.3418H23.6818C25.4185 72.3418 26.8393 73.7572 26.8393 75.4871V78.6324C26.8393 80.3623 25.4185 81.7777 23.6818 81.7777H12.7727L12.7569 81.7935C12.157 81.3059 11.5886 80.7712 11.036 80.2208L5.25781 72.3418H14.2093H20.5243Z" fill="#FCD770"/>
<path d="M20.5251 53.4707H23.6826C25.4192 53.4707 26.8401 54.8861 26.8401 56.616V59.7613C26.8401 61.4912 25.4192 62.9066 23.6826 62.9066H20.5251H14.2101H7.89508H4.73758C3.34828 62.9066 2.18 62.0102 1.75374 60.7678C1.75374 60.7521 1.75374 60.7521 1.75374 60.7364C1.69059 60.2017 1.64323 59.6512 1.62744 59.1008C1.59587 58.5504 1.58008 57.9999 1.58008 57.4495C1.58008 57.2451 1.58008 57.0406 1.59587 56.8362C1.61165 56.616 1.61165 56.4116 1.62744 56.2071C1.83268 54.6659 3.12725 53.4707 4.73758 53.4707H7.89508H14.2101H20.5251Z" fill="#FCD770"/>
<path d="M77.3599 72.3422H74.2024C72.4658 72.3422 71.0449 70.9268 71.0449 69.1969V66.0516C71.0449 64.3216 72.4658 62.9062 74.2024 62.9062H77.3599H83.6749H89.9899H93.1474C94.142 62.9062 95.0261 63.378 95.6103 64.1015C94.9946 67.0109 93.9842 69.7788 92.6264 72.3422H83.6749H77.3599Z" fill="#FCD770"/>
<path d="M95.184 49.05C95.4524 50.025 95.6734 51.0001 95.8313 51.9908H95.8155C95.263 52.8715 94.2841 53.4691 93.1474 53.4691H89.9899H83.6749H77.3599H74.2024C72.4658 53.4691 71.0449 52.0537 71.0449 50.3238V47.1785C71.0449 45.4486 72.4658 44.0332 74.2024 44.0332H77.3599H83.6749H89.9899H93.1474C93.2106 44.0332 93.2895 44.0489 93.3527 44.0489C94.1105 45.6688 94.7262 47.3515 95.184 49.05Z" fill="#FCD770"/>
<path d="M55.2575 80.2051H58.415C60.1516 80.2051 61.5725 81.6205 61.5725 83.3504V86.4957C61.5725 88.2256 60.1516 89.641 58.415 89.641H39.47C37.7334 89.641 36.3125 88.2256 36.3125 86.4957V83.3504C36.3125 81.6205 37.7334 80.2051 39.47 80.2051H42.6275H48.9425H55.2575Z" fill="#FFC729"/>
<path d="M48.9418 80.2051C57.661 80.2051 64.7293 73.164 64.7293 64.4785C64.7293 55.793 57.661 48.752 48.9418 48.752C40.2226 48.752 33.1543 55.793 33.1543 64.4785C33.1543 73.164 40.2226 80.2051 48.9418 80.2051Z" fill="#FCD770"/>
<path d="M48.9417 29.8801H36.3116C31.3228 29.8801 26.997 26.9864 24.9604 22.8031C24.1395 21.1361 23.6816 19.2804 23.6816 17.2988H36.3116C43.2897 17.2988 48.9417 22.9289 48.9417 29.8801Z" fill="#B4DD7F"/>
<path d="M61.5714 17.2988H74.2014C74.2014 19.2489 73.7594 21.1047 72.9542 22.7559C70.9176 26.9707 66.5918 29.8801 61.5714 29.8801H48.9414C48.9414 22.9289 54.5933 17.2988 61.5714 17.2988Z" fill="#B4DD7F"/>
<path d="M46.1632 4.34014C47.884 6.03861 48.9418 8.39759 48.9418 11.0082H42.6268C40.0061 11.0082 37.6379 9.95452 35.9329 8.24032C34.2121 6.54186 33.1543 4.18287 33.1543 1.57227H39.4693C42.09 1.57227 44.4582 2.62594 46.1632 4.34014Z" fill="#A0D468"/>
<path d="M58.4139 1.57227H64.7289C64.7289 4.18287 63.6712 6.54186 61.9503 8.24032C60.2453 9.95452 57.8771 11.0082 55.2564 11.0082H48.9414C48.9414 8.39759 49.9992 6.03861 51.72 4.34014C53.4251 2.62594 55.7932 1.57227 58.4139 1.57227Z" fill="#A0D468"/>
<path d="M47.3613 75.4879H50.5188V72.3426C53.13 72.3426 55.255 70.2258 55.255 67.6246C55.255 65.0234 53.13 62.9066 50.5188 62.9066H47.3613C46.4914 62.9066 45.7825 62.2021 45.7825 61.334C45.7825 60.4659 46.4914 59.7613 47.3613 59.7613H52.0975V61.334H55.255V56.616H50.5188V53.4707H47.3613V56.616C44.75 56.616 42.625 58.7328 42.625 61.334C42.625 63.9352 44.75 66.0519 47.3613 66.0519H50.5188C51.3886 66.0519 52.0975 66.7565 52.0975 67.6246C52.0975 68.4927 51.3886 69.1973 50.5188 69.1973H45.7825V67.6246H42.625V72.3426H47.3613V75.4879Z" fill="black"/>
<path d="M97.8826 57.4538C97.8826 57.1236 97.8683 56.7964 97.8541 56.4678L97.8431 56.2775C97.6473 50.7134 96.0875 45.261 93.2663 40.444L86.795 29.3929C86.4303 26.2225 82.4882 23.6417 75.0649 21.7089C75.5227 20.3187 75.78 18.8388 75.78 17.2992V15.7266H61.5713C57.1097 15.7266 53.1265 17.7899 50.52 21.0044V12.5812H55.2563C61.3503 12.5812 66.3075 7.64153 66.3075 1.57266V0H58.4138C54.3911 0 50.8752 2.15926 48.9413 5.36747C47.0073 2.15926 43.4914 0 39.4688 0H31.575V1.57266C31.575 7.64153 36.5323 12.5812 42.6263 12.5812H47.3625V21.0044C44.756 17.7899 40.7728 15.7266 36.3113 15.7266H22.1025V17.2992C22.1025 18.8388 22.3583 20.3171 22.8177 21.7074C17.3315 23.1401 11.5865 25.5478 11.1034 29.3678L4.61627 40.4455C1.81714 45.2233 0.260494 50.6253 0.0426262 56.1438V56.1469L0.0284175 56.4709C0.0142088 56.7964 0 57.1236 0 57.4538C0 58.5861 0.0584138 59.7373 0.173663 60.8791L0.175241 60.8838C1.40982 73.0263 9.14728 83.2595 19.8402 88.1379C17.5541 88.4713 15.7875 90.4182 15.7875 92.7867C15.7875 95.3878 17.9125 97.5046 20.5238 97.5046H77.3588C79.97 97.5046 82.095 95.3878 82.095 92.7867C82.095 90.4182 80.3284 88.4713 78.044 88.1379C88.7368 83.2579 96.4743 73.0263 97.7089 60.8838L97.7105 60.8791C97.8241 59.7373 97.8826 58.5861 97.8826 57.4538ZM58.4138 3.14531H62.9906C62.258 6.72939 59.069 9.43593 55.2563 9.43593H50.6795C51.412 5.85185 54.6011 3.14531 58.4138 3.14531ZM42.6263 9.43593C38.8136 9.43593 35.6245 6.72939 34.892 3.14531H39.4688C43.2815 3.14531 46.4705 5.85185 47.2031 9.43593H42.6263ZM74.2013 70.7695C73.3314 70.7695 72.6225 70.0649 72.6225 69.1968V66.0515C72.6225 65.1834 73.3314 64.4789 74.2013 64.4789H75.78V67.6242H78.9375V64.4789H82.095V67.6242H85.2525V64.4789H88.41V67.6242H91.5676V64.4789H93.1463C93.3878 64.4789 93.6199 64.5386 93.8331 64.6471C93.3137 66.7859 92.5685 68.832 91.6228 70.7695H74.2013ZM72.6225 50.325V47.1797C72.6225 46.3116 73.3314 45.607 74.2013 45.607H75.78V48.7523H78.9375V45.607H82.095V48.7523H85.2525V45.6054H88.41V48.7523H91.5676V45.6039H92.3269C93.1305 47.5131 93.7368 49.4978 94.1393 51.5265C93.8615 51.7592 93.5157 51.8976 93.1463 51.8976H74.2013C73.3314 51.8976 72.6225 51.1931 72.6225 50.325ZM94.5751 60.3884C94.3256 60.9593 93.7715 61.3336 93.1463 61.3336H74.2013C73.3314 61.3336 72.6225 60.629 72.6225 59.7609V56.6156C72.6225 55.7475 73.3314 55.0429 74.2013 55.0429H75.78V58.1882H78.9375V55.0429H82.095V58.1882H85.2525V55.0429H88.41V58.1882H91.5676V55.0429H93.1463C93.9278 55.0429 94.594 55.6311 94.6856 56.2665L94.6872 56.3199C94.7014 56.6974 94.7251 57.0748 94.7251 57.4538C94.7251 58.4446 94.6682 59.4212 94.5751 60.3884ZM90.7845 42.4821L74.2013 42.4617C71.59 42.4617 69.465 44.5785 69.465 47.1797V50.325C69.465 51.5375 69.9402 52.6336 70.6965 53.4703C69.9387 54.3069 69.465 55.4031 69.465 56.6156V59.7609C69.465 60.9734 69.9402 62.0696 70.6965 62.9062C69.9387 63.7429 69.465 64.839 69.465 66.0515V69.1968C69.465 70.4094 69.9402 71.5055 70.6965 72.3421C69.9387 73.1788 69.465 74.2749 69.465 75.4875V78.6328C69.465 81.2339 71.59 83.3507 74.2013 83.3507H80.3095C75.5748 86.3215 69.9908 88.0687 63.9931 88.0687H62.8611C63.0364 87.5749 63.15 87.0496 63.15 86.496V83.3507C63.15 80.8942 61.2476 78.8923 58.8369 78.6752C63.3458 75.5472 66.3075 70.3543 66.3075 64.4789C66.3075 55.4707 59.3579 48.0572 50.52 47.2599V40.8796C65.7155 40.7098 80.701 38.0803 85.352 33.172L90.5382 42.0276C90.625 42.177 90.6992 42.3327 90.7845 42.4821ZM37.89 86.496V83.3507C37.89 82.4826 38.5989 81.7781 39.4688 81.7781H41.0475V84.9234H44.205V81.7781H47.3625V84.9234H50.52V81.7781H53.6775V84.9234H56.835V81.7781H58.4138C59.2837 81.7781 59.9925 82.4826 59.9925 83.3507V86.496C59.9925 87.3642 59.2837 88.0687 58.4138 88.0687H39.4688C38.5989 88.0687 37.89 87.3642 37.89 86.496ZM48.9413 50.325C56.775 50.325 63.15 56.6738 63.15 64.4789C63.15 72.284 56.775 78.6328 48.9413 78.6328C41.1075 78.6328 34.7325 72.284 34.7325 64.4789C34.7325 56.6738 41.1075 50.325 48.9413 50.325ZM83.6738 29.8805C83.6738 33.0053 70.8007 37.4952 50.52 37.7217V31.4531H61.5713C66.7196 31.4531 71.2238 28.7025 73.7166 24.6089C81.5646 26.5684 83.6738 28.8409 83.6738 29.8805ZM61.5713 18.8719H72.5105C71.7416 24.2 67.1301 28.3078 61.5713 28.3078H50.6321C51.401 22.9796 56.0125 18.8719 61.5713 18.8719ZM36.3113 18.8719C41.8701 18.8719 46.4816 22.9796 47.2504 28.3078H36.3113C30.7525 28.3078 26.141 24.2 25.3721 18.8719H36.3113ZM24.1659 24.6089C26.6588 28.7025 31.163 31.4531 36.3113 31.4531H47.3625V37.7217C27.0819 37.4952 14.2088 33.0053 14.2088 29.8805C14.2088 28.506 17.3394 26.32 24.1659 24.6089ZM12.5305 33.172C17.1831 38.0803 32.1686 40.7082 47.3625 40.8796V47.2599C38.5247 48.0572 31.575 55.4707 31.575 64.4789C31.575 70.3543 34.5368 75.5472 39.0457 78.6752C36.6349 78.8923 34.7325 80.8942 34.7325 83.3507V86.496C34.7325 87.0496 34.8462 87.5749 35.023 88.0687H33.8895C27.8918 88.0687 22.3077 86.3215 17.5731 83.3507H23.6813C26.2925 83.3507 28.4175 81.2339 28.4175 78.6328V75.4875C28.4175 74.2749 27.9423 73.1788 27.1861 72.3421C27.9439 71.5055 28.4175 70.4094 28.4175 69.1968V66.0515C28.4175 64.839 27.9423 63.7429 27.1861 62.9062C27.9439 62.0696 28.4175 60.9734 28.4175 59.7609V56.6156C28.4175 55.4031 27.9423 54.3069 27.1861 53.4703C27.9439 52.6336 28.4175 51.5375 28.4175 50.325V47.1797C28.4175 44.5785 26.2925 42.4617 23.6813 42.4617H7.10911C7.18963 42.3186 7.26067 42.1708 7.34435 42.0292L12.5305 33.172ZM6.25975 70.7695C5.31408 68.832 4.5689 66.7844 4.0495 64.6471C4.26263 64.5386 4.4947 64.4789 4.73625 64.4789H6.315V67.6242H9.47251V64.4789H12.63V67.6242H15.7875V64.4789H18.945V67.6242H22.1025V64.4789H23.6813C24.5512 64.4789 25.26 65.1834 25.26 66.0515V69.1968C25.26 70.0649 24.5512 70.7695 23.6813 70.7695H6.25975ZM5.54615 45.6227H6.315V48.7523H9.47251V45.6196L12.63 45.6164V48.7523H15.7875V45.6133L18.945 45.6101V48.7523H22.1025V45.6086L23.6813 45.607C24.5512 45.607 25.26 46.3116 25.26 47.1797V50.325C25.26 51.1931 24.5512 51.8976 23.6813 51.8976H4.73625C4.36682 51.8976 4.02108 51.7592 3.74322 51.5265C4.14422 49.5056 4.7473 47.5256 5.54615 45.6227ZM4.73625 61.3336C4.11107 61.3336 3.55693 60.9593 3.30748 60.3884C3.21434 59.4212 3.1575 58.4446 3.1575 57.4538C3.1575 57.0968 3.18118 56.743 3.19381 56.3876C3.3059 55.6217 3.96266 55.0429 4.73625 55.0429H6.315V58.1882H9.47251V55.0429H12.63V58.1882H15.7875V55.0429H18.945V58.1882H22.1025V55.0429H23.6813C24.5512 55.0429 25.26 55.7475 25.26 56.6156V59.7609C25.26 60.629 24.5512 61.3336 23.6813 61.3336H4.73625ZM8.02005 73.9148H12.63V77.0601H15.7875V73.9148H18.945V77.0601H22.1025V73.9148H23.6813C24.5512 73.9148 25.26 74.6193 25.26 75.4875V78.6328C25.26 79.5009 24.5512 80.2054 23.6813 80.2054H13.3989C11.3354 78.3591 9.52302 76.2502 8.02005 73.9148ZM77.3588 91.214C78.2287 91.214 78.9375 91.9186 78.9375 92.7867C78.9375 93.6548 78.2287 94.3593 77.3588 94.3593H20.5238C19.6539 94.3593 18.945 93.6548 18.945 92.7867C18.945 91.9186 19.6539 91.214 20.5238 91.214H33.891H39.4688H58.4138H63.9915H77.3588ZM84.4837 80.2054H74.2013C73.3314 80.2054 72.6225 79.5009 72.6225 78.6328V75.4875C72.6225 74.6193 73.3314 73.9148 74.2013 73.9148H75.78V77.0601H78.9375V73.9148H82.095V77.0601H85.2525V73.9148H89.8625C88.3595 76.2502 86.5471 78.3591 84.4837 80.2054Z" fill="black"/>
</svg>
