<svg width="104" height="104" viewBox="0 0 104 104" fill="none" xmlns="http://www.w3.org/2000/svg">
<path d="M4.99023 21.624H84.8327V71.5256H4.99023V21.624Z" fill="#E6E9ED"/>
<path d="M55.7236 84.832L57.9359 91.4856H48.2384H38.2581H28.5605L30.7728 84.832H38.2581H48.2384H55.7236Z" fill="#B27946"/>
<path d="M61.8114 71.5254L69.5961 94.896C70.0285 96.1601 69.9287 97.5241 69.3299 98.7051C68.7311 99.9027 67.7164 100.784 66.4356 101.217C65.9366 101.383 65.4043 101.466 64.8721 101.466C62.7263 101.466 60.8134 100.102 60.1314 98.0564L57.9524 91.486H57.9357L55.7234 84.8325L51.2988 71.5254H54.8917H61.5453H61.8114Z" fill="#CF9E76"/>
<path d="M34.9317 71.5254H35.1978L30.7732 84.8325L28.5609 91.486H28.5443L26.3652 98.0564C25.6833 100.102 23.7704 101.466 21.6246 101.466C21.0923 101.466 20.56 101.383 20.061 101.217C18.7802 100.784 17.7655 99.9027 17.1667 98.7051C16.5679 97.5241 16.4681 96.1601 16.9006 94.896L24.6852 71.5254H28.2781H34.9317Z" fill="#CF9E76"/>
<path d="M48.2381 91.4863V96.4765C48.2381 99.2377 46.0092 101.467 43.248 101.467C41.8674 101.467 40.6198 100.901 39.7216 100.003C38.8234 99.1046 38.2578 97.8571 38.2578 96.4765V91.4863H48.2381Z" fill="#CF9E76"/>
<path d="M41.5846 71.5254H48.2381V84.8325H38.2578V71.5254H41.5846Z" fill="#CF9E76"/>
<path d="M78.1798 21.6233H4.99083H3.32745C2.41259 21.6233 1.66406 20.8747 1.66406 19.9599V16.6331C1.66406 15.7183 2.41259 14.9697 3.32745 14.9697H68.7817C70.129 18.8454 73.8384 21.6233 78.1798 21.6233Z" fill="#CCD1D9"/>
<path d="M58.2195 46.575L48.2392 36.5947L21.625 63.2089V71.5258H61.5463V43.2483L58.2195 46.575Z" fill="#FF826E"/>
<path d="M68.1992 11.6455H74.8528C80.3586 11.6455 84.8331 16.12 84.8331 21.6258H81.5063H78.1795C73.8381 21.6258 70.1287 18.848 68.7814 14.9723C68.3988 13.9243 68.1992 12.8099 68.1992 11.6455Z" fill="#A0D468"/>
<path d="M94.8143 18.2979H101.468C101.468 23.8037 96.9933 28.2782 91.4875 28.2782H84.834C84.834 22.7724 89.3085 18.2979 94.8143 18.2979Z" fill="#A0D468"/>
<path d="M94.8143 1.66309H101.468C101.468 7.16889 96.9933 11.6434 91.4875 11.6434H84.834C84.834 6.13759 89.3085 1.66309 94.8143 1.66309Z" fill="#B4DD7F"/>
<path d="M84.8331 38.2567H78.1795C75.0025 38.2567 72.1581 36.7596 70.345 34.4475C68.9976 32.7509 68.1992 30.6051 68.1992 28.2764H74.8528C80.3586 28.2764 84.8331 32.7509 84.8331 38.2567Z" fill="#B4DD7F"/>
<path d="M71.5426 71.5253C69.4468 68.7474 68.1992 65.2876 68.1992 61.545C68.1992 52.3631 75.6512 44.9111 84.8331 44.9111C94.015 44.9111 101.467 52.3631 101.467 61.545C101.467 70.7269 94.015 78.1788 84.8331 78.1788C79.3938 78.1788 74.57 75.5673 71.5426 71.5253Z" fill="#FCD770"/>
<path d="M83.1705 49.9023V53.4703C81.2493 54.0791 79.8438 55.8573 79.8438 57.9764C79.8438 59.7845 80.8484 61.4113 82.4686 62.223L85.7122 63.8448C86.1962 64.086 86.4973 64.5734 86.4973 65.1157C86.4973 65.8975 85.8602 66.5362 85.0768 66.5362H84.5911C83.8076 66.5362 83.1705 65.8975 83.1705 65.1157V64.8728H79.8438V65.1157C79.8438 67.2365 81.2493 69.0146 83.1705 69.6218V73.1897H86.4973V69.6218C88.4185 69.013 89.8241 67.2348 89.8241 65.1157C89.8241 63.3076 88.8194 61.6808 87.1992 60.869L83.9556 59.2472C83.4716 59.0061 83.1705 58.5187 83.1705 57.9764C83.1705 57.1946 83.8076 56.5559 84.5911 56.5559H85.0768C85.8602 56.5559 86.4973 57.1946 86.4973 57.9764V58.2193H89.8241V57.9764C89.8241 55.8556 88.4185 54.0774 86.4973 53.4703V49.9023H83.1705Z" fill="black"/>
<path d="M91.4862 13.3071C97.9069 13.3071 103.13 8.08239 103.13 1.66339V0H94.813C88.3923 0 83.1693 5.22469 83.1693 11.6437V12.6101V13.3071V13.4917C81.0535 11.3277 78.1093 9.98031 74.8523 9.98031H66.5354V11.6437C66.5354 12.2092 66.5903 12.7615 66.6685 13.3071H3.32677C1.49206 13.3071 0 14.7991 0 16.6339V19.9606C0 21.7953 1.49206 23.2874 3.32677 23.2874V73.189H22.3759L15.3148 94.3722C14.7526 96.0605 14.8823 97.867 15.6774 99.4555C16.4725 101.044 17.8398 102.228 19.5265 102.791C20.2051 103.017 20.9121 103.13 21.6257 103.13C24.4934 103.13 27.03 101.302 27.9382 98.5822L29.7497 93.1496H36.5945V96.4764C36.5945 100.146 39.5786 103.13 43.248 103.13C46.9174 103.13 49.9016 100.146 49.9016 96.4764V93.1496H56.7464L58.5578 98.5822C59.466 101.302 62.001 103.13 64.8704 103.13C65.5856 103.13 66.2909 103.017 66.9696 102.791C68.6579 102.228 70.0252 101.044 70.8203 99.4555C71.6171 97.867 71.7451 96.0605 71.1829 94.3705L64.1202 73.189H70.7288C74.0872 77.2493 79.1622 79.8425 84.8327 79.8425C94.9211 79.8425 103.13 71.6337 103.13 61.5453C103.13 52.0174 95.8077 44.1762 86.496 43.3329V39.9213V38.2579V29.9409H91.4862C97.9069 29.9409 103.13 24.7162 103.13 18.2972V16.6339H94.813C91.5561 16.6339 88.6119 17.9812 86.496 20.1453V13.3071H91.4862ZM94.813 3.32677H99.6351C98.8633 7.11763 95.5033 9.98031 91.4862 9.98031H86.6641C87.4359 6.18946 90.7959 3.32677 94.813 3.32677ZM94.813 19.9606H99.6351C98.8633 23.7515 95.5016 26.6142 91.4862 26.6142H86.6641C87.4359 22.8233 90.7959 19.9606 94.813 19.9606ZM74.8523 13.3071C78.8694 13.3071 82.2295 16.1698 83.0013 19.9606H81.5059H78.1791C74.162 19.9606 70.802 17.0979 70.0302 13.3071H74.8523ZM3.32677 16.6339H67.6748C68.2687 17.8797 69.0704 19.0058 70.0452 19.9606H3.32677V16.6339ZM56.5551 69.8622V47.2634L58.2185 48.9268L59.8819 47.2634V69.8622H56.5551ZM36.5945 73.189V83.1693H33.0764L36.4032 73.189H36.5945ZM39.9213 73.189H46.5748V83.1693H39.9213V73.189ZM49.9016 73.189H50.0929L53.4196 83.1693H49.9016V73.189ZM53.2283 69.8622H49.9016V40.6099L53.2283 43.9367V69.8622ZM46.5748 69.8622H43.248V43.9367L46.5748 40.6099V69.8622ZM39.9213 69.8622H36.5945V50.5902L39.9213 47.2634V69.8622ZM33.2677 69.8622H29.9409V57.2438L33.2677 53.917V69.8622ZM26.6142 69.8622H23.2874V63.8973L26.6142 60.5705V69.8622ZM24.7828 97.5293C24.2172 99.2276 22.281 100.204 20.5777 99.6335C19.7344 99.3523 19.0508 98.7618 18.6515 97.9684C18.254 97.1717 18.1891 96.2701 18.4702 95.4251L25.8823 73.189H32.8951L24.7828 97.5293ZM46.5748 96.4764C46.5748 98.3111 45.0827 99.8031 43.248 99.8031C41.4133 99.8031 39.9213 98.3111 39.9213 96.4764V93.1496H46.5748V96.4764ZM30.8591 89.8228L31.9686 86.496H54.5291L55.6386 89.8228H30.8591ZM68.0258 95.4218C68.3069 96.2684 68.2421 97.1717 67.8445 97.9668C67.447 98.7602 66.7633 99.3507 65.9183 99.6318C64.22 100.202 62.2788 99.2259 61.7133 97.5276L53.5993 73.189H60.6121L68.0258 95.4218ZM99.8031 61.5453C99.8031 69.8006 93.0864 76.5157 84.8327 76.5157C76.5789 76.5157 69.8622 69.8006 69.8622 61.5453C69.8622 53.2899 76.5789 46.5748 84.8327 46.5748C93.0864 46.5748 99.8031 53.2899 99.8031 61.5453ZM83.1693 43.3329C73.8576 44.1762 66.5354 52.0174 66.5354 61.5453C66.5354 64.541 67.274 67.3638 68.5548 69.8622H63.2086V43.9367L70.3113 36.834C72.3856 38.7436 75.1434 39.9213 78.1791 39.9213H83.1693V43.3329ZM70.0302 29.9409H74.8523C78.8694 29.9409 82.2295 32.8036 83.0013 36.5945H78.1791C74.162 36.5945 70.802 33.7318 70.0302 29.9409ZM83.1693 30.1256C81.0535 27.9615 78.1093 26.6142 74.8523 26.6142H66.5354V28.2776C66.5354 30.4599 67.1492 32.4959 68.1988 34.2425L58.2185 44.2228L48.2382 34.2425L19.9606 62.52V69.8622H6.65354V23.2874H78.1791H81.5059H83.1693V28.2776V29.9409V30.1256Z" fill="black"/>
<path d="M9.98047 26.6133H29.9411V29.9401H9.98047V26.6133Z" fill="black"/>
<path d="M9.98047 33.2676H29.9411V36.5943H9.98047V33.2676Z" fill="black"/>
<path d="M9.98047 39.9199H29.9411V43.2467H9.98047V39.9199Z" fill="black"/>
<path d="M9.98047 46.5762H29.9411V49.9029H9.98047V46.5762Z" fill="black"/>
</svg>
