<svg width="104" height="104" viewBox="0 0 104 104" fill="none" xmlns="http://www.w3.org/2000/svg">
<path d="M21.3338 78.332L14.7589 71.3346C12.648 69.088 11.4729 66.1213 11.4729 63.0385V38.2608C11.4729 36.044 9.93285 34.1249 7.76879 33.6445C4.81597 32.9893 2.01562 35.2361 2.01562 38.2608V69.4914C2.01562 73.1422 3.15083 76.7027 5.26433 79.6797L8.85626 84.7396L17.4497 96.8447L20.4818 101.116H43.3912L40.0911 85.3875C38.6032 78.2963 34.4062 72.066 28.3934 68.0231L21.3475 63.2855C19.2481 61.8739 16.4282 62.2339 14.7508 64.1274C12.8853 66.2333 12.9346 69.4139 14.8654 71.4601C18.7236 75.5486 24.4641 81.6613 24.4641 81.6613" fill="#FFCDAC"/>
<path d="M81.7956 78.333L88.3706 71.3356C90.4815 69.089 91.6565 66.1223 91.6565 63.0395V38.2618C91.6565 36.045 93.1966 34.1259 95.3607 33.6455C98.3135 32.9902 101.114 35.2371 101.114 38.2618V69.4924C101.114 73.1432 99.9786 76.7037 97.8651 79.6807L94.2732 84.7405L85.6798 96.8457L82.6476 101.117H59.7383L63.0384 85.3885C64.5262 78.2973 68.7232 72.067 74.736 68.0241L81.7819 63.2865C83.8813 61.8749 86.7012 62.2348 88.3786 64.1284C90.2442 66.2342 90.1948 69.4149 88.264 71.4611C84.4058 75.5495 78.6653 81.6622 78.6653 81.6622" fill="#FFCDAC"/>
<path d="M56.4277 42.6407C57.3893 41.6422 58.6331 40.9048 60.0561 40.5638L65.1992 39.3313L65.2014 39.3348L65.1992 39.3313V36.1914H71.4799V39.3414L76.6096 40.5669C79.9639 41.3681 82.3304 44.3664 82.3304 47.8152V51.5769H70.9596L56.4277 42.6407Z" fill="#7D9BFF"/>
<path d="M46.7308 42.628C45.7692 41.6295 44.5254 40.8921 43.1024 40.5511L37.9593 39.3187L37.9571 39.3221L37.9593 39.3187V36.1787H31.6786V39.3287L26.5489 40.5542C23.1946 41.3554 20.8281 44.3538 20.8281 47.8025V51.5642H32.1989L46.7308 42.628Z" fill="#7D9BFF"/>
<path d="M47.1534 42.1885L39.9178 43.9624C35.2022 45.1185 31.877 49.432 31.877 54.3928V61.8769H71.2538V54.399C71.2538 49.4353 67.9247 45.1202 63.2057 43.9669L55.989 42.2033" fill="#78D2FA"/>
<path d="M56.2524 38.4395V42.7452L51.567 52.5026L46.877 42.7316V38.4395" fill="#FFB487"/>
<path d="M61.8779 23.4385V29.5459C61.8779 34.9753 57.4705 39.3767 52.0337 39.3767C46.5969 39.3767 42.1895 34.9753 42.1895 29.5459V23.4385" fill="#FFCDAC"/>
<path d="M52.0337 13.126C46.5969 13.126 42.1895 17.524 42.1895 22.9492V25.3141H47.0026C50.2021 25.3141 53.2375 23.9005 55.2924 21.4533L61.8779 25.3141V22.9492C61.8779 17.524 57.4707 13.126 52.0337 13.126Z" fill="#BEBEBE"/>
<path d="M42.1901 26.2514V24.6142C42.1901 20.8583 39.0419 17.8135 35.1585 17.8135C31.2751 17.8135 28.127 20.8583 28.127 24.6142V26.2514H32.974C36.0093 26.2514 38.9877 25.4544 41.5913 23.9454" fill="#F5B955"/>
<path d="M42.1901 25.3125V29.6236C42.1901 33.4561 39.0419 36.563 35.1585 36.563C31.2751 36.563 28.127 33.4561 28.127 29.6236V25.3125" fill="#FFCDAC"/>
<path d="M61.877 26.2514V24.6142C61.877 20.8583 64.8153 17.8135 68.4398 17.8135C72.0643 17.8135 75.0026 20.8583 75.0026 24.6142V26.2514H70.4787C67.6458 26.2514 64.8659 25.4544 62.4359 23.9454" fill="#F5B955"/>
<path d="M61.877 25.3125V29.6236C61.877 33.4561 64.8153 36.563 68.4398 36.563C72.0643 36.563 75.0026 33.4561 75.0026 29.6236V25.3125" fill="#FFCDAC"/>
<path d="M19.3362 95.554C18.7379 94.6317 17.5692 94.4149 16.726 95.0695C15.883 95.7241 15.6846 97.0023 16.2833 97.9245L19.1016 102.267C19.4667 102.829 20.0436 103.129 20.6298 103.129C21.0045 103.129 21.3829 103.006 21.7118 102.751C22.5548 102.096 22.7532 100.818 22.1545 99.8961L19.3362 95.554Z" fill="black"/>
<path d="M41.6883 84.8276C40.0978 77.1178 35.6819 70.4512 29.2544 66.0555L22.2709 61.2797C19.4706 59.365 15.7066 59.7767 13.3661 62.2041V37.7386C13.3661 34.5274 11.2134 31.7989 8.13101 31.1031C6.14162 30.6536 4.08976 31.1405 2.50045 32.4373C0.911342 33.7341 0 35.6664 0 37.7386V69.2203C0 73.3447 1.24094 77.3025 3.58847 80.6659L7.14859 85.7664C7.53788 86.3242 8.15316 86.6216 8.77823 86.6216C9.1779 86.6216 9.58137 86.4998 9.93213 86.2466C10.8311 85.5975 11.0427 84.3301 10.4043 83.4156L6.84415 78.3151C4.97874 75.6425 3.99273 72.4976 3.99273 69.2201V37.7386C3.99273 36.9045 4.35967 36.1267 4.9993 35.6045C5.63874 35.0825 6.46464 34.8865 7.26598 35.0674C8.50672 35.3474 9.37334 36.4459 9.37334 37.7386V62.7158C9.37334 66.2515 10.6506 69.6201 12.971 72.2409C13.0704 72.3622 13.1726 72.4822 13.2806 72.5985C14.6064 74.0273 16.1652 75.7109 17.6333 77.2979L19.6886 79.5226C19.6952 79.5297 19.7023 79.5358 19.7091 79.5427C21.4673 81.4445 22.764 82.8489 22.7911 82.8782C23.5456 83.6954 24.8093 83.736 25.613 82.9683C26.4167 82.2006 26.4565 80.9158 25.7014 80.0984C25.6651 80.059 23.3282 77.5281 20.6594 74.6431L16.0819 69.6883C16.0704 69.6757 16.0598 69.6625 16.0482 69.65C14.975 68.3444 14.9883 66.4515 16.1133 65.1597C17.1085 64.0174 18.7982 63.7982 20.0433 64.6495L27.0264 69.4254C32.5859 73.2273 36.4052 78.9932 37.7807 85.6615L41.0517 101.517C41.2491 102.474 42.079 103.13 43.0036 103.13C43.1393 103.13 43.2773 103.116 43.4154 103.087C44.4944 102.856 45.1856 101.78 44.9592 100.683L41.6883 84.8276Z" fill="black"/>
<path d="M15.4882 89.849C14.7383 89.0098 13.2795 88.8149 12.2294 89.4137C11.1792 90.0125 10.9353 91.1781 11.6845 92.0171L11.6995 92.0339C12.1555 92.5444 12.8739 92.8166 13.6033 92.8166C14.0729 92.8166 14.5469 92.7038 14.9584 92.4692C16.0085 91.8704 16.2524 90.7048 15.5032 89.8658L15.4882 89.849Z" fill="black"/>
<path d="M100.63 32.4369C99.0411 31.1401 96.9883 30.654 94.9999 31.1028C91.9175 31.7984 89.7647 34.527 89.7647 37.7383V62.204C87.4244 59.7766 83.66 59.3649 80.86 61.2795L73.8765 66.0553C67.4489 70.4507 63.0332 77.1176 61.4427 84.8274L58.1719 100.683C57.9455 101.78 58.6366 102.856 59.7156 103.087C59.8538 103.116 59.9919 103.13 60.1275 103.13C61.0522 103.13 61.8819 102.473 62.0793 101.516L65.3501 85.6611C66.7258 78.993 70.5448 73.2269 76.1043 69.4251L83.0877 64.6494C84.3324 63.7979 86.0221 64.0171 87.0177 65.1595C88.1412 66.4496 88.1562 68.3395 87.087 69.645C87.0742 69.6593 87.062 69.6739 87.0492 69.6881C87.0492 69.6881 77.4658 80.0592 77.4296 80.0982C76.6748 80.9156 76.7145 82.2005 77.5181 82.9682C78.3218 83.7359 79.5851 83.6955 80.3399 82.878C80.3671 82.8488 88.5245 74.0273 89.8503 72.5985C89.9583 72.4821 90.0605 72.3621 90.16 72.2409C92.4801 69.6201 93.7576 66.2514 93.7576 62.7156V37.7381C93.7576 36.4454 94.6242 35.3469 95.8651 35.0669C96.6663 34.8862 97.492 35.0822 98.1318 35.604C98.7714 36.126 99.1383 36.9038 99.1383 37.7381V69.2201C99.1383 72.4976 98.1523 75.6425 96.287 78.3151L81.2043 99.9242C80.5661 100.838 80.7775 102.106 81.6765 102.755C82.0274 103.008 82.4307 103.13 82.8304 103.13C83.4552 103.13 84.0707 102.833 84.46 102.275L99.5426 80.6659C101.89 77.3025 103.131 73.3447 103.131 69.2203V37.7381C103.13 35.6659 102.219 33.7338 100.63 32.4369Z" fill="black"/>
<path d="M71.0728 63.7535C72.1867 63.7535 73.09 62.8552 73.09 61.747V54.538C73.09 54.2894 73.0799 54.043 73.0654 53.7976H82.3609C83.4748 53.7976 84.3781 52.8993 84.3781 51.7911V48.0439C84.3781 43.6618 81.3854 39.89 77.1004 38.8719L73.5116 38.0192V37.3791C75.8441 35.7539 77.3735 33.0626 77.3735 30.0212V25.3805C77.3735 20.4287 73.3236 16.4004 68.3454 16.4004C66.1114 16.4004 64.066 17.2134 62.488 18.5553C60.731 14.2755 56.5032 11.251 51.5767 11.251C46.6439 11.251 42.4118 14.2833 40.6589 18.5714C39.0785 17.2198 37.0256 16.4 34.7825 16.4C29.8043 16.4 25.7544 20.4283 25.7544 25.3801V25.6885V30.0208C25.7544 33.0622 27.2839 35.7535 29.6163 37.3787V38.0188L26.0276 38.8715C21.7427 39.8898 18.75 43.6614 18.75 48.0435V51.7907C18.75 52.8989 19.6533 53.7972 20.7672 53.7972H30.0365C30.0222 54.0406 30.0123 54.2852 30.0123 54.5318V61.7466C30.0123 62.8548 30.9156 63.7531 32.0295 63.7531H44.1547C45.2686 63.7531 46.1719 62.8548 46.1719 61.7466C46.1719 60.6384 45.2686 59.7401 44.1547 59.7401H42.0705V55.5938C42.0705 54.4856 41.1672 53.5873 40.0534 53.5873C38.9395 53.5873 38.0362 54.4856 38.0362 55.5938V59.7405H34.0468V54.5322C34.0468 50.6623 36.6893 47.3298 40.4723 46.4281L46.0079 45.1086L49.7124 53.492C50.0343 54.2206 50.7589 54.6911 51.5587 54.6911H51.5589C52.3589 54.6911 53.0835 54.2208 53.4054 53.4922L57.1061 45.1213L62.6241 46.4325C66.4108 47.3324 69.0555 50.6653 69.0555 54.538V59.7405H65.0661V55.5938C65.0661 54.4856 64.1628 53.5873 63.0489 53.5873C61.935 53.5873 61.0318 54.4856 61.0318 55.5938V59.7405H58.7457C57.6318 59.7405 56.7285 60.6388 56.7285 61.747C56.7285 62.8552 57.6318 63.7535 58.7457 63.7535H71.0728ZM45.1592 39.4107C44.641 39.1833 44.1008 39.0016 43.5441 38.8689L39.9406 38.01V37.3847C40.5909 36.9327 41.1789 36.3984 41.6889 35.796C42.5898 37.1765 43.7734 38.3569 45.1592 39.256V39.4107ZM29.789 30.0208V29.0651H32.6043C35.074 29.0651 37.5107 28.5782 39.7764 27.6444V30.0206C39.7764 32.7594 37.5363 34.9878 34.7827 34.9878C32.029 34.9878 29.789 32.7598 29.789 30.0208ZM43.8289 29.4345V27.3153H46.5862C49.785 27.3153 52.8265 26.1321 55.1575 24.0217L59.3174 26.4527V29.7281C59.1614 33.8419 55.7502 37.1414 51.5769 37.1414C47.3045 37.1416 43.8289 33.6842 43.8289 29.4345ZM57.9544 39.4171V39.2813C59.3515 38.3828 60.5456 37.1993 61.4535 35.8129C61.9601 36.4084 62.543 36.9369 63.1871 37.3847V38.01L59.5834 38.8689C59.0218 39.003 58.4768 39.187 57.9544 39.4171ZM63.3517 30.0208V29.7279C63.3541 29.6302 63.3592 29.5329 63.3592 29.4345V27.6476C65.6226 28.5794 68.0568 29.0654 70.5238 29.0654H73.3391V30.021C73.3391 32.7599 71.0991 34.9882 68.3454 34.9882C65.5918 34.9882 63.3517 32.7598 63.3517 30.0208ZM68.3452 20.4129C70.9881 20.4129 73.1578 22.4657 73.328 25.0524H70.5236C68.1659 25.0524 65.8457 24.4878 63.7602 23.4127C64.5275 21.6495 66.2942 20.4129 68.3452 20.4129ZM43.8289 22.9707C43.8289 18.7212 47.3045 15.2639 51.5769 15.2639C55.4303 15.2639 58.6354 18.0766 59.2272 21.746L55.8313 19.7614C54.9818 19.265 53.8962 19.4514 53.2634 20.2028C51.6039 22.1728 49.1702 23.3026 46.5862 23.3026H43.8289V22.9707ZM34.7827 20.4129C36.834 20.4129 38.6004 21.6497 39.3677 23.4125C37.282 24.4876 34.962 25.0522 32.6043 25.0522H29.7999C29.9701 22.4657 32.14 20.4129 34.7827 20.4129ZM39.5323 42.5255C35.5637 43.4713 32.4448 46.2236 30.9604 49.7845H22.7843V48.0437C22.7843 45.5264 24.5034 43.3596 26.9649 42.7747L32.1023 41.554C33.0102 41.3383 33.6509 40.5311 33.6509 39.6025V38.9279C34.022 38.9743 34.3992 39.0009 34.7827 39.0009C35.1633 39.0009 35.5379 38.9747 35.9063 38.9289V39.5014C35.9048 39.5313 35.9042 39.5612 35.904 39.5911C35.9036 40.2494 36.229 40.8942 36.8265 41.2787C37.0516 41.4238 37.2949 41.5181 37.5432 41.5652L40.5522 42.2823L39.5323 42.5255ZM51.5593 47.699L49.1934 42.3451V40.9133C49.9633 41.0712 50.7603 41.1545 51.5765 41.1545C52.3787 41.1545 53.1622 41.0736 53.9198 40.9209V42.3588L51.5593 47.699ZM63.5615 42.5293L62.5487 42.2887L65.5738 41.5676C65.8256 41.5211 66.0729 41.4256 66.301 41.2787C66.8975 40.8948 67.2219 40.25 67.2219 39.5917C67.2219 39.576 67.2217 39.5602 67.2213 39.5445V38.9289C67.5898 38.9747 67.9642 39.0009 68.3448 39.0009C68.7283 39.0009 69.1055 38.9743 69.4767 38.9279V39.6025C69.4767 40.5311 70.1173 41.3383 71.0252 41.554L76.1626 42.7747C78.6241 43.3598 80.3434 45.5264 80.3434 48.0437V49.7845H72.1395C70.6537 46.2236 67.5327 43.473 63.5615 42.5293Z" fill="black"/>
<path d="M51.0958 59.0645C50.4768 59.0645 49.8747 59.3129 49.4387 59.7489C49.0004 60.1872 48.752 60.7895 48.752 61.4083C48.752 62.0247 49.0004 62.6271 49.4387 63.0654C49.8747 63.5014 50.477 63.7522 51.0958 63.7522C51.7122 63.7522 52.3146 63.5014 52.7527 63.0654C53.1886 62.6271 53.4397 62.0247 53.4397 61.4083C53.4397 60.7895 53.1889 60.1872 52.7527 59.7489C52.3144 59.3129 51.7122 59.0645 51.0958 59.0645Z" fill="black"/>
<path d="M51.0958 7.50036C52.3901 7.50036 53.4397 6.53994 53.4397 5.35513V2.14523C53.4397 0.960418 52.3901 0 51.0958 0C49.8015 0 48.752 0.960418 48.752 2.14523V5.35513C48.752 6.53994 49.8015 7.50036 51.0958 7.50036Z" fill="black"/>
<path d="M40.9161 9.6828C41.2762 10.1029 41.7481 10.3128 42.2199 10.3128C42.6924 10.3128 43.1647 10.1022 43.525 9.68151C44.2451 8.84028 44.2446 7.4769 43.5237 6.63653L41.5884 4.38004C40.8675 3.53945 39.6995 3.5401 38.9792 4.38133C38.2589 5.22256 38.2597 6.58593 38.9805 7.42631L40.9161 9.6828Z" fill="black"/>
<path d="M60.2872 10.3128C60.8399 10.3128 61.3926 10.1018 61.8139 9.68004L64.0604 7.43222C64.9027 6.58931 64.9021 5.22323 64.0589 4.38118C63.2157 3.53914 61.8489 3.53957 61.0067 4.38269L58.7602 6.63052C57.9179 7.47342 57.9185 8.83951 58.7618 9.68155C59.183 10.1025 59.7351 10.3128 60.2872 10.3128Z" fill="black"/>
</svg>
